<svg width="41" height="41" viewBox="0 0 41 41" fill="none" xmlns="http://www.w3.org/2000/svg">
<circle cx="20.5" cy="20.5" r="20.5" fill="#FF912E"/>
<path d="M35.6291 18.0713C35.4622 17.6559 35.121 17.3425 34.693 17.2114L11.3693 10.0682C10.9758 9.94778 10.559 9.98773 10.1955 10.1807C9.83197 10.3737 9.56541 10.6968 9.44491 11.0902L8.72809 13.4309C8.60759 13.8244 8.64755 14.2413 8.84053 14.6047C9.03357 14.9682 9.3566 15.2347 9.75011 15.3552L19.5488 18.3562C19.916 18.4687 20.1852 18.7736 20.2511 19.152L20.673 21.5741C20.7998 22.3019 21.3173 22.8884 22.0237 23.1047L29.8875 25.5131C30.1209 25.5846 30.359 25.6189 30.5947 25.6189C31.4631 25.6188 32.2981 25.1535 32.7368 24.3687L35.548 19.3399C35.7664 18.9491 35.796 18.4868 35.6291 18.0713Z" fill="white"/>
<path d="M19.7503 21.7348L19.3284 19.3128C19.3231 19.282 19.3044 19.2609 19.2745 19.2517L9.4758 16.2507C9.44732 16.242 9.41934 16.2323 9.39133 16.2226L8.11441 20.3919C7.80321 21.4081 8.37673 22.488 9.39292 22.7992L13.4851 24.0525L12.4175 26.9507C12.3202 27.2146 12.066 27.3919 11.7847 27.3919H9.86674V24.8015C9.86674 24.2054 9.38177 23.7204 8.78567 23.7204H7.08107C6.48497 23.7204 6 24.2054 6 24.8015V30.9189C6 31.515 6.48497 32 7.08107 32H8.78567C9.38177 32 9.86674 31.515 9.86674 30.9189V28.3285H11.7847C12.4566 28.3285 13.064 27.9049 13.2963 27.2745L14.382 24.3272L25.2027 27.6411C25.3892 27.6982 25.5798 27.7265 25.7695 27.7265C26.0805 27.7265 26.3887 27.6505 26.6711 27.5005C27.1258 27.259 27.4593 26.8549 27.61 26.3627L27.7689 25.8438L21.7494 24.0002C20.7039 23.6801 19.938 22.812 19.7503 21.7348ZM14.5618 20.1158C14.5001 20.3174 14.3146 20.4471 14.1142 20.4471C14.0688 20.4471 14.0227 20.4404 13.9769 20.4264L11.3879 19.6335C11.1406 19.5578 11.0015 19.2959 11.0773 19.0486C11.153 18.8013 11.4148 18.6624 11.6622 18.738L14.2512 19.5309C14.4985 19.6067 14.6376 19.8685 14.5618 20.1158Z" fill="white"/>
</svg>
