<svg width="50" height="50" viewBox="0 0 50 50" fill="none" xmlns="http://www.w3.org/2000/svg">
<circle cx="25" cy="25" r="24.5" fill="black" stroke="#800080"/>
<path d="M30.543 10H18.997C17.892 10 17 10.896 17 11.999V35.445C17 36.547 17.892 37.442 18.997 37.442H30.543C31.646 37.442 32.54 36.547 32.54 35.445V11.999C32.54 10.896 31.646 10 30.543 10ZM21.921 11.214H27.621C27.765 11.214 27.882 11.429 27.882 11.695C27.882 11.961 27.765 12.177 27.621 12.177H21.921C21.776 12.177 21.661 11.961 21.661 11.695C21.661 11.429 21.776 11.214 21.921 11.214ZM24.771 35.469C24.068 35.469 23.496 34.897 23.496 34.193C23.496 33.489 24.068 32.919 24.771 32.919C25.472 32.919 26.044 33.489 26.044 34.193C26.044 34.897 25.472 35.469 24.771 35.469ZM31.044 31.1H18.497V13.373H31.044V31.1Z" fill="white"/>
</svg>
