<svg width="41" height="41" viewBox="0 0 41 41" fill="none" xmlns="http://www.w3.org/2000/svg">
<circle cx="20.5" cy="20.5" r="20.5" fill="#FF912E"/>
<path d="M35.1429 12.4143H6.85714C6.62981 12.4143 6.4118 12.5046 6.25105 12.6653C6.09031 12.8261 6 13.0441 6 13.2714V15.53C6 15.7573 6.09031 15.9753 6.25105 16.1361C6.4118 16.2968 6.62981 16.3871 6.85714 16.3871H35.1429C35.3702 16.3871 35.5882 16.2968 35.7489 16.1361C35.9097 15.9753 36 15.7573 36 15.53V13.2714C36 13.0441 35.9097 12.8261 35.7489 12.6653C35.5882 12.5046 35.3702 12.4143 35.1429 12.4143Z" fill="white"/>
<path d="M7 32.5571C7 32.6708 7.04515 32.7798 7.12553 32.8602C7.2059 32.9406 7.31491 32.9857 7.42857 32.9857H33.7857C33.8994 32.9857 34.0084 32.9406 34.0888 32.8602C34.1691 32.7798 34.2143 32.6708 34.2143 32.5571V17.2443H7V32.5571ZM17.1486 25.8328L19.2143 21.1186C19.2484 21.0427 19.3038 20.9784 19.3738 20.9335C19.4438 20.8886 19.5254 20.865 19.6086 20.8657H22.9C22.972 20.8655 23.043 20.8835 23.1062 20.918C23.1695 20.9525 23.223 21.0024 23.2619 21.063C23.3008 21.1237 23.3237 21.1932 23.3286 21.265C23.3335 21.3369 23.3203 21.4089 23.29 21.4743L22.0043 24.2986H23.6929C23.7799 24.2979 23.8651 24.3239 23.9371 24.3729C24.009 24.4219 24.0644 24.4916 24.0957 24.5728C24.1268 24.6549 24.132 24.7445 24.1105 24.8296C24.0891 24.9146 24.042 24.9911 23.9757 25.0486L18.25 30.1057C18.1797 30.1681 18.0909 30.2057 17.9972 30.2126C17.9035 30.2196 17.8101 30.1956 17.7314 30.1443C17.6517 30.0922 17.5915 30.0151 17.5605 29.9251C17.5295 29.8351 17.5293 29.7373 17.56 29.6471L18.6529 26.4371H17.5429C17.4711 26.437 17.4006 26.4189 17.3377 26.3845C17.2748 26.35 17.2216 26.3003 17.1829 26.24C17.1437 26.1803 17.1201 26.1119 17.1141 26.0408C17.1081 25.9697 17.1199 25.8982 17.1486 25.8328Z" fill="white"/>
<path d="M24.7114 10.3571C24.7114 10.2435 24.6663 10.1345 24.5859 10.0541C24.5055 9.97373 24.3965 9.92857 24.2829 9.92857H23.3914V8.42857C23.3914 8.31491 23.3463 8.2059 23.2659 8.12553C23.1855 8.04515 23.0765 8 22.9629 8H19.7486C19.6349 8 19.5259 8.04515 19.4455 8.12553C19.3652 8.2059 19.32 8.31491 19.32 8.42857V9.92857H18.4286C18.3149 9.92857 18.2059 9.97373 18.1255 10.0541C18.0452 10.1345 18 10.2435 18 10.3571V11.5571H24.7114V10.3571Z" fill="white"/>
<path d="M24.7114 10.3571C24.7114 10.2435 24.6663 10.1345 24.5859 10.0541C24.5055 9.97373 24.3965 9.92857 24.2829 9.92857H23.3914V8.42857C23.3914 8.31491 23.3463 8.2059 23.2659 8.12553C23.1855 8.04515 23.0765 8 22.9629 8H19.7486C19.6349 8 19.5259 8.04515 19.4455 8.12553C19.3652 8.2059 19.32 8.31491 19.32 8.42857V9.92857H18.4286C18.3149 9.92857 18.2059 9.97373 18.1255 10.0541C18.0452 10.1345 18 10.2435 18 10.3571V11.5571H24.7114V10.3571Z" fill="white"/>
</svg>
