<svg width="41" height="41" viewBox="0 0 41 41" fill="none" xmlns="http://www.w3.org/2000/svg">
<circle cx="20.5" cy="20.5" r="20.5" fill="#FF912E"/>
<path d="M32.3444 26.3861L28.8483 22.8899C27.5996 21.6413 25.477 22.1408 24.9775 23.764C24.6029 24.8878 23.3543 25.5121 22.2305 25.2623C19.7333 24.638 16.362 21.3916 15.7376 18.7694C15.3631 17.6456 16.1122 16.397 17.236 16.0225C18.8592 15.523 19.3587 13.4003 18.11 12.1517L14.6139 8.65553C13.615 7.78149 12.1166 7.78149 11.2426 8.65553L8.87018 11.0279C6.49778 13.5252 9.11991 20.1429 14.9885 26.0115C20.857 31.8801 27.4748 34.6271 29.972 32.1298L32.3444 29.7574C33.2185 28.7585 33.2185 27.2601 32.3444 26.3861Z" fill="white"/>
</svg>
